<svg width="160" height="174" viewBox="0 0 160 174" fill="none" xmlns="http://www.w3.org/2000/svg">
<path d="M46.4615 0.0417466C20.8846 0.0417466 0 22.7157 0 50.4839V123.391C0 151.118 20.8846 173.75 46.4615 173.75H113.615C139.154 173.75 160 151.076 160 123.308V50.4422C160 22.6739 139.154 0 113.577 0H46.4615V0.0417466ZM46.4615 13.4039H113.577C132.5 13.4039 147.692 29.8978 147.692 50.4839V123.35C147.692 143.936 132.5 160.43 113.615 160.43H46.4615C27.5 160.43 12.3077 143.936 12.3077 123.433V50.5257C12.3462 29.8978 27.5385 13.4039 46.4615 13.4039ZM129.269 26.7661C125.846 26.7661 123.115 29.7308 123.115 33.4472C123.115 37.1636 125.846 40.1283 129.269 40.1283C132.692 40.1283 135.423 37.1636 135.423 33.4472C135.423 29.7308 132.692 26.7661 129.269 26.7661ZM80.0385 40.1283C56.3462 40.1283 36.9615 61.1737 36.9615 86.8959C36.9615 112.618 56.3462 133.663 80.0385 133.663C103.731 133.663 123.115 112.618 123.115 86.8959C123.115 61.1737 103.731 40.1283 80.0385 40.1283ZM80.0385 53.4905C97.1154 53.4905 110.808 68.3559 110.808 86.8959C110.808 105.436 97.1154 120.301 80.0385 120.301C62.9615 120.301 49.2692 105.436 49.2692 86.8959C49.2692 68.3559 62.9615 53.4905 80.0385 53.4905Z" fill="#645F5F"/>
</svg>
