<svg width="138" height="160" viewBox="0 0 138 157" fill="none" xmlns="http://www.w3.org/2000/svg">
<path d="M136.407 1.89596C135.63 1.02148 134.648 0.416025 133.577 0.15078C132.507 -0.114466 131.391 -0.0284757 130.362 0.398641L3.71509 52.4793C2.62286 52.9478 1.68252 53.781 1.01895 54.8682C0.355386 55.9554 0 57.2452 0 58.5662C0 59.8873 0.355386 61.177 1.01895 62.2642C1.68252 63.3515 2.62286 64.1846 3.71509 64.6531L58.9792 89.6519L81.0849 152.149C81.5002 153.33 82.2121 154.347 83.1327 155.076C84.0534 155.805 85.1425 156.213 86.2659 156.25C87.4292 156.223 88.558 155.798 89.5035 155.031C90.4489 154.264 91.1666 153.191 91.562 151.953L137.615 8.73155C138.008 7.57976 138.102 6.32562 137.888 5.11535C137.674 3.90508 137.16 2.78856 136.407 1.89596ZM86.2659 131.512L70.2047 85.9411L97.7792 54.7578L89.6623 45.5786L61.8575 77.0223L21.7911 58.5988L122.706 17.39L86.2659 131.512Z" fill="#645F5F"/>
</svg>
